<mxfile host="app.diagrams.net" modified="2024-07-16T04:08:54.881Z" agent="Mozilla/5.0 (Windows NT 10.0; Win64; x64) AppleWebKit/537.36 (KHTML, like Gecko) Chrome/126.0.0.0 Safari/537.36" version="24.6.4" etag="IQNrL-cpcKvG25_TvIqX" type="github">
  <diagram name="第 1 页" id="zzoMLaYJgZ_6w3f55oP_">
    <mxGraphModel>
      <root>
        <mxCell id="0" />
        <mxCell id="1" parent="0" />
      </root>
    </mxGraphModel>
  </diagram>
</mxfile>
